<?xml version="1.0" encoding="iso-8859-1"?>
<!-- Generator: Adobe Illustrator 18.1.1, SVG Export Plug-In . SVG Version: 6.00 Build 0)  -->
<svg version="1.1" id="Capa_1" xmlns="http://www.w3.org/2000/svg" xmlns:xlink="http://www.w3.org/1999/xlink" x="0px" y="0px"
	 viewBox="0 0 23.576 23.576" style="enable-background:new 0 0 23.576 23.576;" xml:space="preserve">
<g>
	<g id="c113_x">
		<path style="fill:#030104;" d="M23.575,19.213l-4.367,4.363c0,0-6.91-7.419-7.423-7.419c-0.508,0-7.419,7.419-7.419,7.419
			l-4.365-4.363c0,0,7.418-6.809,7.418-7.418c0-0.615-7.418-7.428-7.418-7.428L4.366,0c0,0,6.969,7.421,7.419,7.421
			C12.237,7.421,19.208,0,19.208,0l4.367,4.367c0,0-7.422,6.914-7.422,7.428C16.153,12.296,23.575,19.213,23.575,19.213z"/>
	</g>
</g>
<g>
</g>
<g>
</g>
<g>
</g>
<g>
</g>
<g>
</g>
<g>
</g>
<g>
</g>
<g>
</g>
<g>
</g>
<g>
</g>
<g>
</g>
<g>
</g>
<g>
</g>
<g>
</g>
<g>
</g>
</svg>
